# xmcd
#
# Track frame offsets: 
#        150
#        27528
#        37878
#        60390
#        91466
#        110600
#        142274
#        146160
#        175827
#        201217
#        229379
#        236467
#        260380
#        280841
#        283577
#        310500
#
# Disc length: 4357 seconds
#
# Revision: 0
# Processed by: cddbd v1.5.2PL0 Copyright (c) Steve Scherf et al.
# Submitted via: ExactAudioCopy v1.0b3
#
DISCID=eb110310
DTITLE=Héroes del Silencio - El Espíritu Del Vino (20th Anniversary Ed
DTITLE=ition Gran Reserva)
DYEAR=2012
DGENRE=Rock
TTITLE0=Nuestros Nombres
TTITLE1=Tesoro
TTITLE2=Los Placeres De La Pobreza
TTITLE3=La Herida
TTITLE4=La Sirena Varada
TTITLE5=La Apariencia No Es Sincera
TTITLE6=Z (Instrumental)
TTITLE7=Culpable
TTITLE8=El Camino Del Exceso
TTITLE9=Flor De Loto
TTITLE10=El Refugio Interior (Instrumental)
TTITLE11=Sangre Hirviendo
TTITLE12=Tumbas De Sal
TTITLE13=Bendecida 2
TTITLE14=Bendecida
TTITLE15=La Alacena
EXTD=
EXTT0=
EXTT1=
EXTT2=
EXTT3=
EXTT4=
EXTT5=
EXTT6=
EXTT7=
EXTT8=
EXTT9=
EXTT10=
EXTT11=
EXTT12=
EXTT13=
EXTT14=
EXTT15=
PLAYORDER=
